<svg xmlns="http://www.w3.org/2000/svg" width="480" height="800" viewBox="0 0 480 800"><defs>
 <pattern id="g1" width="4" height="4" patternUnits="userSpaceOnUse"><rect width="1" height="1" fill="#000"/><rect x="2" y="2" width="1" height="1" fill="#000"/></pattern>
 <pattern id="g2" width="2" height="2" patternUnits="userSpaceOnUse"><rect width="1" height="1" fill="#000"/><rect x="1" y="1" width="1" height="1" fill="#000"/></pattern>
 <pattern id="w25" width="2" height="2" patternUnits="userSpaceOnUse"><rect width="1" height="1" fill="#fff"/></pattern>
 <pattern id="w50" width="2" height="2" patternUnits="userSpaceOnUse"><rect width="1" height="1" fill="#fff"/><rect x="1" y="1" width="1" height="1" fill="#fff"/></pattern>
 <pattern id="w75" width="2" height="2" patternUnits="userSpaceOnUse"><rect width="1" height="1" fill="#fff"/><rect x="1" width="1" height="1" fill="#fff"/><rect y="1" width="1" height="1" fill="#fff"/></pattern>
</defs><style>.o{font-family:Orbitron}.r{font-family:Rajdhani}</style><rect width="480" height="800" fill="#fff"/><text x="32" y="44" text-anchor="start" font-size="26" font-weight="700" fill="#000"  class="r" letter-spacing="3" >FRI 09 OCT</text><text x="331" y="43" text-anchor="end" font-size="18" font-weight="700" fill="#000"  class="o"  >84%</text><rect x="341" y="28" width="8" height="14" rx="2" fill="#000" stroke="#000" stroke-width="3" /><rect x="352" y="28" width="8" height="14" rx="2" fill="#000" stroke="#000" stroke-width="3" /><rect x="363" y="28" width="8" height="14" rx="2" fill="#000" stroke="#000" stroke-width="3" /><rect x="374" y="28" width="8" height="14" rx="2" fill="#000" stroke="#000" stroke-width="3" /><rect x="385" y="28" width="8" height="14" rx="2" fill="#000" stroke="#000" stroke-width="3" /><rect x="396" y="28" width="8" height="14" rx="2" fill="#000" stroke="#000" stroke-width="3" /><rect x="407" y="28" width="8" height="14" rx="2" fill="#000" stroke="#000" stroke-width="3" /><rect x="418" y="28" width="8" height="14" rx="2" fill="#000" stroke="#000" stroke-width="3" /><rect x="429" y="28" width="8" height="14" rx="2" fill="#fff" stroke="#000" stroke-width="3" /><rect x="440" y="28" width="8" height="14" rx="2" fill="#fff" stroke="#000" stroke-width="3" /><line x1="32" y1="60" x2="448" y2="60" stroke="#000" stroke-width="3" /><text x="240" y="190" text-anchor="middle" font-size="142" font-weight="900" fill="#000"  class="o"  textLength="416" lengthAdjust="spacingAndGlyphs">11:40</text><g transform="translate(42.8,214.8) scale(1.1)" fill="none" stroke="#000" stroke-width="1.9" stroke-linecap="round" stroke-linejoin="round"><path d="M9 4h6v16H9zM5 8v8M19 8v8"/></g><g transform="translate(86.8,214.8) scale(1.1)" fill="none" stroke="#000" stroke-width="1.9" stroke-linecap="round" stroke-linejoin="round"><path d="M3 9.5a13 13 0 0 1 18 0M6 13a8.5 8.5 0 0 1 12 0M9 16.4a4 4 0 0 1 6 0"/><circle cx="12" cy="19.5" r=".8"/></g><rect x="32" y="262" width="416" height="42" rx="0" fill="#000"  /><text x="48" y="291" text-anchor="start" font-size="20" font-weight="700" fill="#fff"  class="r" letter-spacing="6" >NEXT POINT</text><text x="432" y="293" text-anchor="end" font-size="26" font-weight="700" fill="#fff"  class="o"  >12:00</text><text x="32" y="366" text-anchor="start" font-size="56" font-weight="900" fill="#000"  class="o"  >LUNCH</text><text x="32" y="408" text-anchor="start" font-size="30" font-weight="700" fill="#000"  class="r" letter-spacing="2" >IN 20 MIN</text><rect x="32" y="424" width="416" height="24" rx="12" fill="#fff" stroke="#000" stroke-width="4" /><rect x="32" y="424" width="336.76190476190476" height="24" rx="12" fill="#000" stroke="#000" stroke-width="4" /><line x1="32" y1="478" x2="448" y2="478" stroke="#000" stroke-width="3" /><text x="32" y="504" text-anchor="start" font-size="16" font-weight="700" fill="#000"  class="r" letter-spacing="8" >THEN</text><text x="32" y="540" text-anchor="start" font-size="26" font-weight="700" fill="#000"  class="o"  >15:00</text><text x="230" y="536" text-anchor="end" font-size="19" font-weight="600" fill="#000"  class="r"  >IN 3 H 20 M</text><text x="32" y="568" text-anchor="start" font-size="21" font-weight="700" fill="#000"  class="r" letter-spacing="2" >BREAK</text><text x="250" y="540" text-anchor="start" font-size="26" font-weight="700" fill="#000"  class="o"  >17:00</text><text x="448" y="536" text-anchor="end" font-size="19" font-weight="600" fill="#000"  class="r"  >IN 5 H 20 M</text><text x="250" y="568" text-anchor="start" font-size="21" font-weight="700" fill="#000"  class="r" letter-spacing="2" >END WORK</text><line x1="32" y1="626" x2="448" y2="626" stroke="#000" stroke-width="3" /><circle cx="84" cy="690" r="38" fill="none" stroke="#000" stroke-width="4"/><g transform="translate(62.4,668.4) scale(1.8)" fill="none" stroke="#000" stroke-width="1.9" stroke-linecap="round" stroke-linejoin="round"><path d="M3 7a2 2 0 0 1 2-2h4l2 2h8a2 2 0 0 1 2 2v8a2 2 0 0 1-2 2H5a2 2 0 0 1-2-2z"/></g><text x="84" y="756" text-anchor="middle" font-size="18" font-weight="700" fill="#000"  class="r" letter-spacing="1" >FILES</text><circle cx="188" cy="690" r="38" fill="none" stroke="#000" stroke-width="4"/><g transform="translate(166.4,668.4) scale(1.8)" fill="none" stroke="#000" stroke-width="1.9" stroke-linecap="round" stroke-linejoin="round"><circle cx="12" cy="12" r="9"/><path d="M12 7v5l3 2"/></g><text x="188" y="756" text-anchor="middle" font-size="18" font-weight="700" fill="#000"  class="r" letter-spacing="1" >POINTS</text><circle cx="292" cy="690" r="38" fill="none" stroke="#000" stroke-width="4"/><g transform="translate(270.4,668.4) scale(1.8)" fill="none" stroke="#000" stroke-width="1.9" stroke-linecap="round" stroke-linejoin="round"><path d="M12 3l9 5-9 5-9-5zM3 12.5l9 5 9-5M3 16.5l9 5 9-5"/></g><text x="292" y="756" text-anchor="middle" font-size="18" font-weight="700" fill="#000"  class="r" letter-spacing="1" >CONTEXTS</text><circle cx="396" cy="690" r="38" fill="none" stroke="#000" stroke-width="4"/><g transform="translate(374.4,668.4) scale(1.8)" fill="none" stroke="#000" stroke-width="1.9" stroke-linecap="round" stroke-linejoin="round"><circle cx="12" cy="12" r="3"/><circle cx="12" cy="12" r="8" stroke-dasharray="3.2 2.3"/></g><text x="396" y="756" text-anchor="middle" font-size="18" font-weight="700" fill="#000"  class="r" letter-spacing="1" >SETTINGS</text></svg>